:FULLY-SPECIFIED
:FORCE-ALL-JOINTS-BE-3DOF
:DEGREES
113
root 0.711853 17.4872 24.1422 -0.153536 -3.16132 0.709081
lfemur -3.43034 7.95457 -18.72
ltibia 81.1253 -0 0
lfoot 15.1385 -0.575794 0.00547559
ltoes -9.79981 0 0
rfemur -18.0362 0.230716 24.3719
rtibia 55.9073 -0 0
rfoot -0.929265 -6.45892 -0.0086969
rtoes 13.2952 -0 0
lowerback 17.6908 -1.41242 -0.13804
upperback 2.05321 -1.856 0.271646
thorax -7.67724 -0.894084 0.811003
lowerneck -6.64031 1.84386 -0.531505
upperneck -8.36161 2.384 -1.7835
head -1.43535 1.22298 -0.438535
lclavicle -3.22031e-14 1.82882e-14 0
lhumerus -39.8879 -18.7712 91.8074
lradius 105.943 -0 0
lwrist 28.1891 0 0
lhand -37.2573 8.55837 -0.0038265
lfingers 7.12502 -0 0
lthumb -10.3228 38.2839 -0.00349573
rclavicle -3.22031e-14 1.82882e-14 0
rhumerus -41.1271 10.4343 -85.1833
rradius 88.3862 -0 0
rwrist -2.09393 0 0
rhand -44.5342 38.4694 0.000102822
rfingers 7.12502 -0 0
rthumb -17.3354 9.22249 9.67479e-05
114
root 0.716569 17.4885 24.6832 -0.158594 -3.44137 0.621004
lfemur -3.01165 8.31575 -18.3718
ltibia 82.5257 -0 0
lfoot 16.1608 -0.573939 0.00514099
ltoes -9.59001 0 0
rfemur -18.1717 0.65152 24.6544
rtibia 54.2124 -0 0
rfoot -1.76481 -6.45531 -0.00816691
rtoes 12.8807 -0 0
lowerback 17.6806 -1.43227 0.0387471
upperback 2.02081 -1.84078 0.372838
thorax -7.71002 -0.890172 0.816347
lowerneck -6.63592 1.94096 -0.477556
upperneck -8.34923 2.49951 -2.00116
head -1.43006 1.28124 -0.515157
lclavicle -3.22031e-14 1.82882e-14 0
lhumerus -40.4134 -18.8588 92.041
lradius 105.911 -0 0
lwrist 28.1526 0 0
lhand -37.2963 8.59238 -0.00359459
lfingers 7.12502 -0 0
lthumb -10.3605 38.3161 -0.00328386
rclavicle -3.22031e-14 1.82882e-14 0
rhumerus -40.8931 10.5753 -85.1779
rradius 88.6913 -0 0
rwrist -2.20357 0 0
rhand -44.5311 38.4808 9.659e-05
rfingers 7.12502 -0 0
rthumb -17.3324 9.23366 9.08844e-05
115
root 0.721285 17.4899 25.2242 -0.163222 -3.72142 0.532924
lfemur -2.59035 8.67441 -18.0206
ltibia 83.9261 -0 0
lfoot 17.1831 -0.57209 0.00477334
ltoes -9.38022 0 0
rfemur -18.3052 1.07298 24.9359
rtibia 52.5175 -0 0
rfoot -2.60036 -6.45171 -0.00758435
rtoes 12.4663 -0 0
lowerback 17.6704 -1.45208 0.215539
upperback 1.98843 -1.8255 0.47402
thorax -7.7428 -0.886257 0.82169
lowerneck -6.63144 2.03806 -0.423597
upperneck -8.33728 2.61508 -2.21881
head -1.42486 1.3395 -0.591775
lclavicle -3.22031e-14 1.82882e-14 0
lhumerus -40.9395 -18.9443 92.2755
lradius 105.879 -0 0
lwrist 28.1161 0 0
lhand -37.3354 8.62639 -0.00333948
lfingers 7.12502 -0 0
lthumb -10.3982 38.3483 -0.00305081
rclavicle -3.22031e-14 1.82882e-14 0
rhumerus -40.659 10.7162 -85.1718
rradius 88.9965 -0 0
rwrist -2.31321 0 0
rhand -44.528 38.4923 8.97352e-05
rfingers 7.12502 -0 0
rthumb -17.3294 9.24483 8.44345e-05
116
root 0.726001 17.4912 25.7652 -0.16742 -4.00147 0.444839
lfemur -2.16642 9.03049 -17.6664
ltibia 85.3264 -0 0
lfoot 18.2054 -0.570247 0.00437276
ltoes -9.17042 0 0
rfemur -18.4366 1.4951 25.2165
rtibia 50.8226 -0 0
rfoot -3.43591 -6.44812 -0.00694935
rtoes 12.0518 -0 0
lowerback 17.6602 -1.47187 0.392336
upperback 1.95609 -1.81016 0.575193
thorax -7.77558 -0.882339 0.82703
lowerneck -6.62687 2.13515 -0.369626
upperneck -8.32577 2.73068 -2.43646
head -1.41973 1.39777 -0.668389
lclavicle -3.22031e-14 1.82882e-14 0
lhumerus -41.4663 -19.0279 92.511
lradius 105.846 -0 0
lwrist 28.0795 0 0
lhand -37.3745 8.6604 -0.00306119
lfingers 7.12502 -0 0
lthumb -10.4359 38.3805 -0.00279657
rclavicle -3.22031e-14 1.82882e-14 0
rhumerus -40.4248 10.8571 -85.1651
rradius 89.3016 -0 0
rwrist -2.42285 0 0
rhand -44.5249 38.5037 8.22573e-05
rfingers 7.12502 -0 0
rthumb -17.3264 9.256 7.73983e-05
117
root 0.730717 17.4926 26.3062 -0.171188 -4.28154 0.356742
lfemur -1.73984 9.38396 -17.3091
ltibia 86.7268 -0 0
lfoot 19.2277 -0.568413 0.00393937
ltoes -8.96062 0 0
rfemur -18.566 1.91785 25.4961
rtibia 49.1277 -0 0
rfoot -4.27146 -6.44454 -0.00626204
rtoes 11.6373 -0 0
lowerback 17.6499 -1.49162 0.569138
upperback 1.92377 -1.79476 0.676356
thorax -7.80836 -0.878418 0.832367
lowerneck -6.62221 2.23224 -0.315645
upperneck -8.31471 2.84634 -2.6541
head -1.41468 1.45605 -0.745
lclavicle -3.22031e-14 1.82882e-14 0
lhumerus -41.9936 -19.1093 92.7475
lradius 105.814 -0 0
lwrist 28.043 0 0
lhand -37.4135 8.69441 -0.0027597
lfingers 7.12502 -0 0
lthumb -10.4736 38.4127 -0.00252115
rclavicle -3.22031e-14 1.82882e-14 0
rhumerus -40.1905 10.998 -85.1579
rradius 89.6068 -0 0
rwrist -2.53249 0 0
rhand -44.5218 38.5151 7.41562e-05
rfingers 7.12502 -0 0
rthumb -17.3234 9.26717 6.97757e-05
118
root 0.735433 17.4939 26.8473 -0.174525 -4.56161 0.268631
lfemur -1.3106 9.73479 -16.9489
ltibia 88.1271 -0 0
lfoot 20.25 -0.566586 0.00347331
ltoes -8.75083 0 0
rfemur -18.6933 2.34123 25.7749
rtibia 47.4328 -0 0
rfoot -5.10701 -6.44097 -0.00552258
rtoes 11.2229 -0 0
lowerback 17.6395 -1.51134 0.745946
upperback 1.89148 -1.77931 0.77751
thorax -7.84113 -0.874494 0.837703
lowerneck -6.61746 2.32932 -0.261652
upperneck -8.30408 2.96203 -2.87175
head -1.40971 1.51434 -0.821608
lclavicle -3.22031e-14 1.82882e-14 0
lhumerus -42.5216 -19.1887 92.9848
lradius 105.782 -0 0
lwrist 28.0065 0 0
lhand -37.4526 8.72842 -0.00243503
lfingers 7.12502 -0 0
lthumb -10.5113 38.4449 -0.00222454
rclavicle -3.22031e-14 1.82882e-14 0
rhumerus -39.956 11.1388 -85.15
rradius 89.9119 -0 0
rwrist -2.64213 0 0
rhand -44.5186 38.5266 6.54319e-05
rfingers 7.12502 -0 0
rthumb -17.3203 9.27834 6.15668e-05
119
root 0.740149 17.4953 27.3883 -0.177431 -4.84168 0.1805
lfemur -0.878662 10.0829 -16.5856
ltibia 89.5275 -0 0
lfoot 21.2723 -0.564768 0.00297474
ltoes -8.54103 0 0
rfemur -18.8187 2.76522 26.0528
rtibia 45.738 -0 0
rfoot -5.94256 -6.43741 -0.00473111
rtoes 10.8084 -0 0
lowerback 17.629 -1.53103 0.922758
upperback 1.85921 -1.7638 0.878654
thorax -7.87391 -0.870567 0.843036
lowerneck -6.61261 2.4264 -0.207647
upperneck -8.29389 3.07776 -3.0894
head -1.40481 1.57263 -0.898213
lclavicle -3.22031e-14 1.82882e-14 0
lhumerus -43.0502 -19.266 93.223
lradius 105.75 -0 0
lwrist 27.9699 0 0
lhand -37.4917 8.76243 -0.00208716
lfingers 7.12502 -0 0
lthumb -10.5489 38.4771 -0.00190674
rclavicle -3.22031e-14 1.82882e-14 0
rhumerus -39.7214 11.2796 -85.1416
rradius 90.2171 -0 0
rwrist -2.75176 0 0
rhand -44.5155 38.538 5.60845e-05
rfingers 7.12502 -0 0
rthumb -17.3173 9.28951 5.27716e-05
120
root 0.744865 17.4966 27.9293 -0.179906 -5.12176 0.0923467
lfemur -0.444018 10.4284 -16.2192
ltibia 90.9279 -0 0
lfoot 22.2946 -0.562959 0.0024438
ltoes -8.33124 0 0
rfemur -18.942 3.18981 26.3299
rtibia 44.0431 -0 0
rfoot -6.77811 -6.43386 -0.0038878
rtoes 10.394 -0 0
lowerback 17.6185 -1.55068 1.09958
upperback 1.82698 -1.74823 0.979788
thorax -7.90669 -0.866637 0.848367
lowerneck -6.60767 2.52348 -0.15363
upperneck -8.28414 3.19353 -3.30705
head -1.4 1.63093 -0.974816
lclavicle -3.22031e-14 1.82882e-14 0
lhumerus -43.5794 -19.3413 93.462
lradius 105.718 -0 0
lwrist 27.9334 0 0
lhand -37.5307 8.79644 -0.00171611
lfingers 7.12502 -0 0
lthumb -10.5866 38.5093 -0.00156776
rclavicle -3.22031e-14 1.82882e-14 0
rhumerus -39.4867 11.4203 -85.1326
rradius 90.5223 -0 0
rwrist -2.8614 0 0
rhand -44.5124 38.5495 4.61139e-05
rfingers 7.12502 -0 0
rthumb -17.3143 9.30069 4.33899e-05
121
root 0.749581 17.498 28.4703 -0.181949 -5.40184 0.00416551
lfemur -0.00664567 10.7711 -15.8498
ltibia 92.3282 -0 0
lfoot 23.3169 -0.561159 0.00188068
ltoes -8.12144 0 0
rfemur -19.0633 3.61499 26.6062
rtibia 42.3482 -0 0
rfoot -7.61365 -6.43032 -0.00299285
rtoes 9.97949 -0 0
lowerback 17.608 -1.57031 1.2764
upperback 1.79477 -1.73261 1.08091
thorax -7.93947 -0.862704 0.853696
lowerneck -6.60264 2.62055 -0.0996
upperneck -8.27482 3.30933 -3.52471
head -1.39526 1.68923 -1.05142
lclavicle -3.22031e-14 1.82882e-14 0
lhumerus -44.1091 -19.4144 93.7019
lradius 105.686 -0 0
lwrist 27.8969 0 0
lhand -37.5698 8.83045 -0.00132186
lfingers 7.12502 -0 0
lthumb -10.6243 38.5415 -0.0012076
rclavicle -3.22031e-14 1.82882e-14 0
rhumerus -39.2518 11.5611 -85.1229
rradius 90.8274 -0 0
rwrist -2.97104 0 0
rhand -44.5093 38.5609 3.55202e-05
rfingers 7.12502 -0 0
rthumb -17.3113 9.31186 3.3422e-05
122
root 0.754297 17.4993 29.0114 -0.18356 -5.68193 -0.0840475
lfemur 0.433473 11.1109 -15.4773
ltibia 93.7286 -0 0
lfoot 24.3392 -0.559371 0.00128554
ltoes -7.91164 0 0
rfemur -19.1826 4.04075 26.8818
rtibia 40.6533 -0 0
rfoot -8.4492 -6.4268 -0.00204642
rtoes 9.56503 -0 0
lowerback 17.5973 -1.5899 1.45323
upperback 1.76259 -1.71693 1.18203
thorax -7.97225 -0.858768 0.859023
lowerneck -6.59752 2.71761 -0.0455576
upperneck -8.26595 3.42517 -3.74237
head -1.3906 1.74754 -1.12801
lclavicle -3.22031e-14 1.82882e-14 0
lhumerus -44.6394 -19.4855 93.9426
lradius 105.653 -0 0
lwrist 27.8604 0 0
lhand -37.6089 8.86445 -0.000904431
lfingers 7.12502 -0 0
lthumb -10.662 38.5737 -0.00082625
rclavicle -3.22031e-14 1.82882e-14 0
rhumerus -39.0168 11.7018 -85.1127
rradius 91.1326 -0 0
rwrist -3.08068 0 0
rhand -44.5061 38.5723 2.43033e-05
rfingers 7.12502 -0 0
rthumb -17.3083 9.32303 2.28677e-05
123
root 0.759013 17.5007 29.5524 -0.184738 -5.96201 -0.172297
lfemur 0.876356 11.448 -15.1017
ltibia 95.1289 -0 0
lfoot 25.3615 -0.557593 0.000658581
ltoes -7.70185 0 0
rfemur -19.3 4.46708 27.1566
rtibia 38.9584 -0 0
rfoot -9.28475 -6.42329 -0.00104874
rtoes 9.15057 -0 0
lowerback 17.5866 -1.60946 1.63006
upperback 1.73043 -1.70119 1.28313
thorax -8.00502 -0.854828 0.864347
lowerneck -6.59231 2.81467 0.00849787
upperneck -8.25752 3.54105 -3.96005
head -1.38602 1.80586 -1.20461
lclavicle -3.22031e-14 1.82882e-14 0
lhumerus -45.1702 -19.5545 94.1841
lradius 105.621 -0 0
lwrist 27.8238 0 0
lhand -37.6479 8.89846 -0.000463809
lfingers 7.12502 -0 0
lthumb -10.6997 38.6059 -0.000423717
rclavicle -3.22031e-14 1.82882e-14 0
rhumerus -38.7816 11.8424 -85.1019
rradius 91.4377 -0 0
rwrist -3.19032 0 0
rhand -44.503 38.5838 1.24632e-05
rfingers 7.12502 -0 0
rthumb -17.3053 9.3342 1.1727e-05
124
root 0.763729 17.502 30.0934 -0.185483 -6.2421 -0.260586
lfemur 1.32202 11.7822 -14.723
ltibia 96.5293 0 0
lfoot 26.3838 -0.555826 0
ltoes -7.49205 0 0
rfemur -19.4153 4.89396 27.4307
rtibia 37.2635 0 0
rfoot -10.1203 -6.4198 0
rtoes 8.73611 0 0
lowerback 17.5759 -1.62898 1.8069
upperback 1.69831 -1.6854 1.38423
thorax -8.0378 -0.850886 0.869669
lowerneck -6.587 2.91173 0.0625668
upperneck -8.24953 3.65695 -4.17773
head -1.38151 1.86418 -1.2812
lclavicle -3.22031e-14 1.82882e-14 0
lhumerus -45.7016 -19.6213 94.4264
lradius 105.589 0 0
lwrist 27.7873 0 0
lhand -37.687 8.93247 0
lfingers 7.12502 0 0
lthumb -10.7374 38.6381 0
rclavicle -3.22031e-14 1.82882e-14 0
rhumerus -38.5463 11.983 -85.0905
rradius 91.7429 0 0
rwrist -3.29996 0 0
rhand -44.4999 38.5952 0
rfingers 7.12502 0 0
rthumb -17.3023 9.34537 0
